# xmcd
#
# Track frame offsets:
# 150
# 13015
# 23940
# 33055
# 41142
# 53285
# 66542
# 80907
# 89585
# 103127
# 116372
# 125627
#
# Disc length: 1838 seconds
#
#
# Revision: 0
# Processed by: cddbd v1.5PL3 Copyright (c) Steve Scherf et al.
# Submitted via: FreeRIP 2.52 
#
DISCID=a0072c0c
DTITLE=Tonico e Tinoco - Sertão sem Poluição
DYEAR=2000
DGENRE=
TTITLE0=Sertão sem Poluição
TTITLE1=Gaúcho Guapo
TTITLE2=Decisão Cruel
TTITLE3=Cantar não é Pecado
TTITLE4=Plantando Canavial
TTITLE5=Encanto da Natureza
TTITLE6=Chão de Goiás
TTITLE7=Quem foi Rei
TTITLE8=Eu penso em ti
TTITLE9=Boiadeiro Punho de Aço
TTITLE10=Minha Mágoa
TTITLE11=Burro Picaço
EXTD=
EXTT0=
EXTT1=
EXTT2=
EXTT3=
EXTT4=
EXTT5=
EXTT6=
EXTT7=
EXTT8=
EXTT9=
EXTT10=
EXTT11=
PLAYORDER=
